PathFileType	4	(X/Y/Z)	Walk1_0-155.trc
DataRate	CameraRate	NumFrames	NumMarkers	Units	OrigDataRate	OrigDataStartFrame	OrigNumFrames
30	30	8	22	m	30	58	155
Frame#	Time	Hip			RHip			RKnee			RAnkle			RBigToe			RSmallToe			RHeel			LHip			LKnee			LAnkle			LBigToe			LSmallToe			LHeel			Neck			Head			Nose			RShoulder			RElbow			RWrist			LShoulder			LElbow			LWrist		
		X1	Y1	Z1	X2	Y2	Z2	X3	Y3	Z3	X4	Y4	Z4	X5	Y5	Z5	X6	Y6	Z6	X7	Y7	Z7	X8	Y8	Z8	X9	Y9	Z9	X10	Y10	Z10	X11	Y11	Z11	X12	Y12	Z12	X13	Y13	Z13	X14	Y14	Z14	X15	Y15	Z15	X16	Y16	Z16	X17	Y17	Z17	X18	Y18	Z18	X19	Y19	Z19	X20	Y20	Z20	X21	Y21	Z21	X22	Y22	Z22
59	1.9666666666666663	-1.4415623748966897	0.8633679893192093	0.34921611962573584	-1.4412362700091377	0.8488999673585337	0.45066588548632225	-1.3455926003893572	0.5044626919940622	0.47754631222419275	-1.6881809860701957	0.2527517148576367	0.44831128150356014	-1.6485677967813848	0.02165259014194628	0.4629231392110533	-1.6791925694821375	0.058958192088405685	0.48869053384730854	-1.771407009045983	0.2451695958295672	0.4326071463589977	-1.434771797100093	0.8524031115656835	0.2362442424296579	-1.329934722568251	0.49832355062383654	0.2637047770391439	-1.3502658579735047	0.09871952694888522	0.2846490063639644	-1.1372627642833515	0.031651513845260305	0.29948238374407926	-1.1718761774239121	0.029420993109366297	0.23969948491520385	-1.396100836080829	0.022607727613392914	0.3021071535513234	-1.4815565034687634	1.552499270422255	0.3234897939870144	-1.428823491857532	1.8007364525078833	0.3311249461335582	-1.3353617998968357	1.6728151768470343	0.3313211789265093	-1.5125383481462327	1.4379370407979655	0.513105646990774	-1.4571072017628286	1.122058152180035	0.5747947429526111	-1.3728438501481863	0.8640484411018565	0.6106056358694628	-1.5302241361704836	1.4278971858163936	0.11671888715565568	-1.4756069397467622	1.1087118027486762	0.10489933341668937	-1.4233207952908815	0.8564356450378428	0.08108094244608649
60	2.0	-1.4072914337431113	0.8714778451558337	0.3470763214221013	-1.4013282264454034	0.855490566423531	0.4485249494841892	-1.265905448915697	0.5217688645252105	0.47425829046339146	-1.6016765367503747	0.2638020305149706	0.445763970714164	-1.5477409920043277	0.03723599964453581	0.46781778556063286	-1.5816668318771046	0.07984620707141105	0.4954208369953505	-1.6835795150701744	0.25417834272696	0.43535334603527925	-1.4043081880926187	0.8565691121559754	0.233504800461309	-1.32425032691013	0.4955117206946332	0.2590303159824729	-1.3523244116249604	0.09863580265093227	0.28240922726594003	-1.1361869345174902	0.02988908565715203	0.30066523840400705	-1.173236079857213	0.028129087987597428	0.23990497785689	-1.395382988315497	0.024618845180928658	0.2988848474940518	-1.4456331519558274	1.5608531095180471	0.32106157022354914	-1.3939167758317612	1.8079460061630128	0.3296284526562128	-1.29904700498007	1.6797665689411776	0.3286042407225797	-1.4798604849341475	1.445040913500516	0.5115851806377251	-1.435786200193171	1.1283649738565342	0.5694601285097642	-1.3667310186175412	0.8672360832205832	0.6081142983540595	-1.4927814626291838	1.436573882917876	0.11455607917219514	-1.4266657000289937	1.1186186497267148	0.10122411485526508	-1.3608891396319556	0.8691789457892768	0.07922243909764758
61	2.033333333333333	-1.374766319159085	0.8791532819483734	0.34501851726576654	-1.3633275560752758	0.8616728197932447	0.44732872108324123	-1.1956373795979411	0.5396675689476279	0.4687503521408121	-1.5087969447509524	0.2631738024118447	0.4428733996596148	-1.430536963424427	0.05387121175521757	0.46997639591488677	-1.4693461582091765	0.09689757735769704	0.5002565405571453	-1.5873068624702817	0.24635023006719597	0.4370244783614379	-1.3757213334231158	0.8601979158804393	0.23109001306796575	-1.3185483679947245	0.49365480147559504	0.2561575935194851	-1.354178507121684	0.09896631189221501	0.2807656769998019	-1.1359903304145522	0.02853595316465537	0.3007526609057529	-1.1752610097034344	0.02688863220783682	0.2398104990181261	-1.3947784863339299	0.027122040306287794	0.2957254421611983	-1.4096748485028558	1.5682090795190564	0.319339443770406	-1.3599815122588776	1.8158613706065505	0.32868171534161594	-1.2622879478980533	1.6854409410900462	0.32663345093898993	-1.4470543882315035	1.45132521150901	0.5103749893719199	-1.4149104790293827	1.1348454239899073	0.5657030914347139	-1.3591638135564144	0.8723750891693038	0.6053395060486639	-1.4550928821013844	1.4446418601903444	0.11342052761017168	-1.3782505622824341	1.129311463694693	0.09566354171177932	-1.298140959106033	0.8831617064610541	0.07737336068033906
62	2.066666666666667	-1.343015431449415	0.8856091578638369	0.34291859299143923	-1.3270956075370084	0.867353886248651	0.44694761549717754	-1.1362996519898896	0.5561153486570287	0.4614299954452231	-1.410813770574585	0.2517500033974435	0.4399885666006208	-1.3035905900731148	0.06939546697979455	0.46864064235992675	-1.3466900599603107	0.10702336369207684	0.5026916047096209	-1.4837859806716436	0.2239050973668669	0.4376100327030187	-1.3479720149533438	0.8632906081540404	0.2292019761508149	-1.311062176892055	0.4926914081307763	0.2552343639395426	-1.355201994918372	0.09904401667180601	0.2804978839368041	-1.1369752895767928	0.02703533936169748	0.29991229769132505	-1.1780984879838399	0.025244741995968954	0.23964143355870485	-1.3943903497392234	0.029376454932898595	0.2934753597459129	-1.3735456951715488	1.5738428610367412	0.3180612452364718	-1.3253703705077473	1.8233802894640534	0.32853591805726257	-1.2251219637714386	1.6892853901691414	0.32549437740242815	-1.413895137472236	1.4560742029624838	0.5093723645139389	-1.39406858575775	1.1407109022739952	0.5633056817728571	-1.3497375105892198	0.8782607837364861	0.6025006449802065	-1.4172007095466232	1.4512107624427912	0.11299692780362124	-1.3312978915410234	1.139192325328039	0.08942846459714343	-1.2357788774129215	0.8973823039329282	0.07547210819357159
63	2.1	-1.3112671614849178	0.8901163968059401	0.3406932052117769	-1.2923870607658972	0.872157060333409	0.44699762628306905	-1.0878790454174632	0.5690802309044548	0.45278416718838405	-1.308543405161403	0.23233817724894226	0.43743107616512084	-1.1721390604668545	0.08116095801612118	0.4641331188414748	-1.2171993659298472	0.10929505749324428	0.5025020974144206	-1.3739983448442443	0.19171602430352902	0.43729011278997326	-1.3202481358127813	0.8657740555852476	0.22789531041406813	-1.3010487719524828	0.4921235023055787	0.2559354172188363	-1.3550841612044384	0.09842496021843258	0.28205000043135803	-1.1388939683018817	0.025064468296699803	0.298600683892872	-1.181836808107657	0.02298882447326077	0.23961549524385609	-1.3942344624550544	0.030874111569899897	0.2930259562999193	-1.337057845967876	1.5773417191995698	0.3170694463493384	-1.2894060362725717	1.829208544409094	0.32899170363749775	-1.1875569504222452	1.6909177869391594	0.3251637524710258	-1.3801443886449123	1.4588400940649222	0.5085564562298953	-1.3727109511664124	1.145180551171984	0.5618394349844552	-1.3380501229820838	0.8834588734926957	0.5997774795627301	-1.379165824455135	1.455698159571031	0.11289606745082416	-1.2865078000387875	1.1469243413542498	0.08356547971796142	-1.1743755795786457	0.9108018249281213	0.07396272429573475
64	2.1333333333333333	-1.2790288031767587	0.8921776390969032	0.3382597715057689	-1.2588094132296197	0.8753302295791517	0.4469699530778422	-1.0491103184944452	0.5769301037469811	0.44332279164472715	-1.2029582878019351	0.20884236156658686	0.43513295472809665	-1.0403812026878454	0.0894578036338963	0.45722524905049533	-1.08459393277672	0.10666532063475556	0.4994531087461075	-1.259422350730575	0.1558391514808092	0.4358476831256495	-1.2919413931308579	0.8673272289146345	0.22703991022186204	-1.2886578350626396	0.4912804718386724	0.2577742041429749	-1.353810816920462	0.09731051179005434	0.2852426657643017	-1.1412715590780593	0.022541335569578654	0.29738923688070495	-1.186488316195893	0.020263919067762252	0.23991357228583263	-1.3942901640979906	0.031466513829972474	0.2946010384816215	-1.3000471728096625	1.5786103169478356	0.3163258960912854	-1.252316072255969	1.8324620829225602	0.3296932046257702	-1.1495077668284277	1.6901627439284987	0.32551380061225	-1.3454722675040374	1.4594762091661768	0.5080186602036735	-1.3499117744290443	1.147644518802159	0.5609332367423402	-1.3235824316493776	0.8868171659837287	0.5974067120864632	-1.3410081578142665	1.4578867184531028	0.11278164389449483	-1.243958142224269	1.1516807498428279	0.07872593706414927	-1.1144398924372276	0.9226070297576076	0.07350083180813437
65	2.1666666666666665	-1.2459446660844913	0.8916705475479888	0.3357487569391418	-1.2257205863642224	0.8761327812916055	0.44657000641740874	-1.0174031107316202	0.5787642134867038	0.4337389553498322	-1.0962451332887853	0.18486333723655168	0.4324053868956684	-0.9129449784830366	0.09736251827556977	0.44866149467052047	-0.954282885009004	0.10393198098405036	0.49368906375712746	-1.143064777967876	0.12144978130368356	0.4323485592738982	-1.2624806067624597	0.8675105705564089	0.22657683584410537	-1.2743881753513886	0.4897539787568003	0.26036085856122104	-1.3517337612976212	0.09630937179460479	0.28921557313603025	-1.1436140637836287	0.01962081578791928	0.296587387583194	-1.191749270656242	0.017482859716136983	0.24050981561872353	-1.3946622962750534	0.03121316930347359	0.2974566905814581	-1.2624058862029137	1.577787171419028	0.31586612829403105	-1.2146541033288467	1.8328854411023725	0.33041894285496826	-1.1108406730353515	1.6870557231177115	0.32637259324828105	-1.3095447713515793	1.4580870461250337	0.5078616762303136	-1.3245831569723567	1.1478230614701512	0.5603247580105015	-1.305636108392043	0.887866898051869	0.5957308489542238	-1.302650592547384	1.4578676568905424	0.11255312683073372	-1.2033197584427338	1.1531076807589278	0.07522571416910129	-1.0565445685289854	0.9322871368871213	0.07446055365415258
66	2.2	-1.2116263104370149	0.8888875805977275	0.33363065511702905	-1.1922374069565504	0.8743111331752245	0.4459324000496338	-0.9891463054538882	0.5747072282250505	0.4248770927247865	-0.9924119555294529	0.162792643816175	0.4283419749521187	-0.7952476329499801	0.10716555020612946	0.43897259487481877	-0.8330732325079625	0.10439876791003594	0.4857921172240769	-1.0299700122188118	0.09172609264533141	0.4256470025515676	-1.2311792236239893	0.8660932657309998	0.226660706186206	-1.2584532784148375	0.48756562216601185	0.26337948246501447	-1.3496148147295886	0.09582676287958501	0.292784211684334	-1.1453988774510981	0.01668826640518144	0.29603457252737425	-1.1968496779214086	0.015081160380235825	0.24109487033917407	-1.395623085403635	0.030343698964350053	0.30044603840638967	-1.2240274057064084	1.5751593596846858	0.3157822418338559	-1.176855420487325	1.8307492216184191	0.33114028453675914	-1.0715029783137524	1.6819209270171527	0.32761361962299757	-1.2721467756960076	1.454970098162886	0.508121126244043	-1.2958999445893176	1.1458277445605545	0.5598570016984263	-1.2834539132727631	0.8867729427526154	0.5949723330950908	-1.2638700787385464	1.4559510935756328	0.11242739236909383	-1.1642041677121546	1.1511571865194585	0.07307211731780087	-1.001440853282482	0.9393989411104785	0.0767101167581313
